<?xml version="1.0" encoding="utf-8"?>
<svg version="1.1" xmlns="http://www.w3.org/2000/svg" xmlns:xlink="http://www.w3.org/1999/xlink" x="0px" y="0px"
	 viewBox="0 0 50 50" style="enable-background:new 0 0 50 50;" xml:space="preserve">
<g>
	<path d="M50,25c0,13.8-11.2,25-25,25S0,38.8,0,25S11.2,0,25,0S50,11.2,50,25z M23,36c0,0,0,2,2,2c2.2,0,2-2,2-2V20l5.1,4.9
		c0,0,1.3,1.4,2.8,0c0.8-0.7,0.8-2.1,0.1-2.9l-8-7.8c0,0-1.8-2.6-4,0l-7.9,7.9c0,0-1.3,1.2,0,2.8c0,0,1.4,1.7,2.9,0.1l5-5V36z"/>
</g>
</svg>
